HIERARCHY
ROOT hip
{
  OFFSET 0 0 0
  CHANNELS 6 Xposition Yposition Zposition Zrotation Yrotation Xrotation
  JOINT abdomen
  {
    OFFSET 0 20.6881 -0.73152
    CHANNELS 3 Zrotation Xrotation Yrotation
    JOINT chest
    {
      OFFSET 0 11.7043 -0.48768
      CHANNELS 3 Zrotation Xrotation Yrotation
      JOINT neck
      {
        OFFSET 0 22.1894 -2.19456
        CHANNELS 3 Zrotation Xrotation Yrotation
        JOINT head
        {
          OFFSET -0.24384 7.07133 1.2192
          CHANNELS 3 Zrotation Xrotation Yrotation
          JOINT leftEye
          {
            OFFSET 4.14528 8.04674 8.04672
            CHANNELS 3 Zrotation Xrotation Yrotation
            End Site
            {
              OFFSET 1 0 0
            }
          }
          JOINT rightEye
          {
            OFFSET -3.6576 8.04674 8.04672
            CHANNELS 3 Zrotation Xrotation Yrotation
            End Site
            {
              OFFSET 1 0 0
            }
          }
        }
      }
      JOINT rCollar
      {
        OFFSET -2.68224 19.2634 -4.8768
        CHANNELS 3 Zrotation Xrotation Yrotation
        JOINT rShldr
        {
          OFFSET -8.77824 -1.95073 1.46304
          CHANNELS 3 Zrotation Xrotation Yrotation
          JOINT rForeArm
          {
            OFFSET -28.1742 -1.7115 0.48768
            CHANNELS 3 Zrotation Xrotation Yrotation
            JOINT rHand
            {
              OFFSET -22.5879 0.773209 7.07136
              CHANNELS 3 Zrotation Xrotation Yrotation
              JOINT rThumb1
              {
                OFFSET -1.2192 -0.487915 3.41376
                CHANNELS 3 Zrotation Xrotation Yrotation
                JOINT rThumb2
                {
                  OFFSET -3.37035 -0.52449 3.41376
                  CHANNELS 3 Zrotation Xrotation Yrotation
                  End Site
                  {
                    OFFSET -1.78271 -1.18214 1.43049
                  }
                }
              }
              JOINT rIndex1
              {
                OFFSET -7.75947 0.938293 5.60832
                CHANNELS 3 Zrotation Xrotation Yrotation
                JOINT rIndex2
                {
                  OFFSET -2.54057 -0.884171 1.56538
                  CHANNELS 3 Zrotation Xrotation Yrotation
                  End Site
                  {
                    OFFSET -1.62519 -0.234802 1.16502
                  }
                }
              }
              JOINT rMid1
              {
                OFFSET -8.24714 1.18213 3.41376
                CHANNELS 3 Zrotation Xrotation Yrotation
                JOINT rMid2
                {
                  OFFSET -3.10165 -0.590103 1.0647
                  CHANNELS 3 Zrotation Xrotation Yrotation
                  End Site
                  {
                    OFFSET -2.48547 -0.328903 0.83742
                  }
                }
              }
              JOINT rRing1
              {
                OFFSET -8.82822 0.546677 1.51678
                CHANNELS 3 Zrotation Xrotation Yrotation
                JOINT rRing2
                {
                  OFFSET -2.60934 -0.819778 -0.0198488
                  CHANNELS 3 Zrotation Xrotation Yrotation
                  End Site
                  {
                    OFFSET -2.33842 -0.294052 0.168128
                  }
                }
              }
              JOINT rPinky1
              {
                OFFSET -8.27202 -0.0477905 -0.4584
                CHANNELS 3 Zrotation Xrotation Yrotation
                JOINT rPinky2
                {
                  OFFSET -1.82734 -0.647385 -0.700984
                  CHANNELS 3 Zrotation Xrotation Yrotation
                  End Site
                  {
                    OFFSET -1.69225 -0.51767 -0.607171
                  }
                }
              }
            }
          }
        }
      }
      JOINT lCollar
      {
        OFFSET 2.68224 19.2634 -4.8768
        CHANNELS 3 Zrotation Xrotation Yrotation
        JOINT lShldr
        {
          OFFSET 8.77824 -1.95073 1.46304
          CHANNELS 3 Zrotation Xrotation Yrotation
          JOINT lForeArm
          {
            OFFSET 28.1742 -1.7115 0.48768
            CHANNELS 3 Zrotation Xrotation Yrotation
            JOINT lHand
            {
              OFFSET 22.5879 0.773209 7.07136
              CHANNELS 3 Zrotation Xrotation Yrotation
              JOINT lThumb1
              {
                OFFSET 1.2192 -0.487915 3.41376
                CHANNELS 3 Zrotation Xrotation Yrotation
                JOINT lThumb2
                {
                  OFFSET 3.37035 -0.52449 3.41376
                  CHANNELS 3 Zrotation Xrotation Yrotation
                  End Site
                  {
                    OFFSET 1.78271 -1.18214 1.43049
                  }
                }
              }
              JOINT lIndex1
              {
                OFFSET 7.75947 0.938293 5.60832
                CHANNELS 3 Zrotation Xrotation Yrotation
                JOINT lIndex2
                {
                  OFFSET 2.54057 -0.884171 1.56538
                  CHANNELS 3 Zrotation Xrotation Yrotation
                  End Site
                  {
                    OFFSET 1.62519 -0.234802 1.16502
                  }
                }
              }
              JOINT lMid1
              {
                OFFSET 8.24714 1.18213 3.41376
                CHANNELS 3 Zrotation Xrotation Yrotation
                JOINT lMid2
                {
                  OFFSET 3.10165 -0.590103 1.0647
                  CHANNELS 3 Zrotation Xrotation Yrotation
                  End Site
                  {
                    OFFSET 2.48547 -0.328903 0.83742
                  }
                }
              }
              JOINT lRing1
              {
                OFFSET 8.82822 0.546677 1.51678
                CHANNELS 3 Zrotation Xrotation Yrotation
                JOINT lRing2
                {
                  OFFSET 2.60934 -0.819778 -0.0198488
                  CHANNELS 3 Zrotation Xrotation Yrotation
                  End Site
                  {
                    OFFSET 2.33842 -0.294052 0.168128
                  }
                }
              }
              JOINT lPinky1
              {
                OFFSET 8.27202 -0.0477905 -0.4584
                CHANNELS 3 Zrotation Xrotation Yrotation
                JOINT lPinky2
                {
                  OFFSET 1.82734 -0.647385 -0.700984
                  CHANNELS 3 Zrotation Xrotation Yrotation
                  End Site
                  {
                    OFFSET 1.69225 -0.51767 -0.607171
                  }
                }
              }
            }
          }
        }
      }
    }
  }
  JOINT rButtock
  {
    OFFSET -8.77824 4.35084 1.2192
    CHANNELS 3 Zrotation Xrotation Yrotation
    JOINT rThigh
    {
      OFFSET 0 -1.70687 -2.19456
      CHANNELS 3 Zrotation Xrotation Yrotation
      JOINT rShin
      {
        OFFSET 0 -36.8199 0.73152
        CHANNELS 3 Zrotation Xrotation Yrotation
        JOINT rFoot
        {
          OFFSET 0.73152 -45.1104 -5.12064
          CHANNELS 3 Zrotation Xrotation Yrotation
          End Site
          {
            OFFSET -1.1221 -3.69964 12.103
          }
        }
      }
    }
  }
  JOINT lButtock
  {
    OFFSET 8.77824 4.35084 1.2192
    CHANNELS 3 Zrotation Xrotation Yrotation
    JOINT lThigh
    {
      OFFSET 0 -1.70687 -2.19456
      CHANNELS 3 Zrotation Xrotation Yrotation
      JOINT lShin
      {
        OFFSET 0 -36.8199 0.73152
        CHANNELS 3 Zrotation Xrotation Yrotation
        JOINT lFoot
        {
          OFFSET -0.73152 -45.1104 -5.12064
          CHANNELS 3 Zrotation Xrotation Yrotation
          End Site
          {
            OFFSET 1.1221 -3.69964 12.103
          }
        }
      }
    }
  }
}
MOTION
Frames:	4
Frame Time:	0.00833333
-209.833 83.282 -28.457 0.0 0.0 0.0 -2.96288 0.00183604 -0.0799156 -0.816454 0.0169087 -0.141252 2.92518e-14 0.0 -4.96962e-16 8.73131e-14 3.18055e-15 -1.49399e-15 -0.0 0.0 0.0 -0.0 0.0 0.0 1.45107e-14 3.97958e-17 0.0 3.04588e-13 7.26806e-16 -3.97569e-15 5.21502e-12 -1.5382e-12 -1.55847e-13 5.9795e-11 1.69658e-12 -1.0146e-12 1.4102e-10 3.40745e-13 -2.53808e-12 2.43527e-10 5.82042e-13 -4.4003e-12 1.41027e-10 3.4509e-13 -2.5508e-12 7.73091 5.47488 0.417314 1.4102e-10 3.40916e-13 -2.54444e-12 2.90554 0.965183 0.102902 1.41027e-10 3.40518e-13 -2.54206e-12 10.2786 0.731801 0.0259123 1.41018e-10 3.40717e-13 -2.54126e-12 2.22167 -0.733487 -0.20892 1.44135e-14 3.45544e-17 -2.98177e-16 2.99891e-13 3.41661e-16 -5.76476e-15 5.22997e-12 1.57855e-12 -1.65389e-13 5.97307e-11 -1.43145e-12 -9.98694e-13 1.40928e-10 3.23946e-13 -2.55399e-12 2.43389e-10 5.56597e-13 -4.40904e-12 1.40922e-10 3.28392e-13 -2.54126e-12 -7.73091 5.47488 -0.417314 1.40928e-10 3.24019e-13 -2.5508e-12 -2.90554 0.965183 -0.102902 1.40915e-10 3.24615e-13 -2.5516e-12 -10.2786 0.731801 -0.0259123 1.4093e-10 3.24814e-13 -2.56035e-12 -2.22167 -0.733487 0.20892 -2.03217e-16 0.0 -3.88251e-19 -1.77252 -1.93398 0.01222 -0.00866652 -2.07864 -0.0712279 -0.477354 3.99977 0.135216 2.03217e-16 0.0 3.88251e-19 -2.72837 -9.0433 0.303224 -0.00826819 10.7977 -0.214916 0.538203 -1.76712 -0.0241793
-203.725 82.3044 -33.5118 -39.0497 82.8508 -42.9389 -3.3092 2.29991 -0.490058 -1.19482 -0.219909 -0.347404 0.694345 3.29644 0.271131 0.807999 -7.41321 0.699611 -0.0 0.0 0.0 -0.0 0.0 0.0 1.82205e-14 -1.56689e-13 -2.22119e-14 22.8698 5.08438 -0.820103 -4.33313 -1.99187 6.7428 0.000104299 0.227059 0.0319102 2.69312e-10 1.10767e-10 -6.96623e-10 4.63745e-10 1.92064e-10 -1.20491e-09 2.69318e-10 1.10771e-10 -6.96633e-10 7.73091 5.47488 0.417314 2.6931e-10 1.10765e-10 -6.96624e-10 2.90554 0.965183 0.102902 2.69319e-10 1.10766e-10 -6.96626e-10 10.2786 0.731801 0.0259123 2.69309e-10 1.10766e-10 -6.96624e-10 2.22167 -0.733487 -0.20892 1.80768e-14 -1.56687e-13 -2.24693e-14 -22.0481 4.64726 -0.489934 3.48128 -1.45886 -5.5636 -0.0376926 -4.30879 0.599391 4.16444e-10 -1.39735e-10 9.156e-10 7.10869e-10 -2.39741e-10 1.58609e-09 4.16438e-10 -1.39732e-10 9.1561e-10 -7.73091 5.47488 -0.417314 4.16444e-10 -1.39736e-10 9.15598e-10 -2.90554 0.965183 -0.102902 4.16432e-10 -1.39734e-10 9.15603e-10 -10.2786 0.731801 -0.0259123 4.16447e-10 -1.39734e-10 9.15597e-10 -2.22167 -0.733487 0.20892 -2.03217e-16 0.0 -3.88251e-19 -1.07803 -23.3061 -1.76437 -0.088092 36.436 0.581429 -0.529654 0.861103 -0.136547 2.03217e-16 0.0 3.88251e-19 -2.3631 -6.48491 6.11267 -0.0237107 12.5963 -0.322648 0.660727 -4.61949 -1.24535
-203.739 82.2985 -33.5317 -39.2318 82.9192 -43.0729 -3.64186 4.72813 -0.92689 -1.59681 -0.471191 -0.565683 1.39384 6.78028 0.561194 1.86715 -15.2444 1.48046 -0.0 0.0 0.0 -0.0 0.0 0.0 2.20308e-14 -3.05912e-13 -4.38755e-14 47.2051 10.4546 -1.70954 -8.40621 -4.00436 13.8943 -6.12345e-05 0.468867 0.0658949 4.0231e-10 1.94008e-10 -1.50607e-09 6.9178e-10 3.36499e-10 -2.60487e-09 4.02315e-10 1.94012e-10 -1.50608e-09 7.73091 5.47488 0.417314 4.02307e-10 1.94004e-10 -1.50607e-09 2.90554 0.965183 0.102902 4.02318e-10 1.94008e-10 -1.50608e-09 10.2786 0.731801 0.0259123 4.02307e-10 1.94008e-10 -1.50607e-09 2.22167 -0.733487 -0.20892 2.18337e-14 -3.05903e-13 -4.40898e-14 -45.2668 9.55658 -1.01882 6.85543 -2.95549 -11.4573 0.0215537 -8.86111 1.24425 7.31886e-10 -2.71243e-10 2.02072e-09 1.24545e-09 -4.64777e-10 3.50026e-09 7.31881e-10 -2.71242e-10 2.02073e-09 -7.73091 5.47488 -0.417314 7.31886e-10 -2.71244e-10 2.02072e-09 -2.90554 0.965183 -0.102902 7.31875e-10 -2.71243e-10 2.02073e-09 -10.2786 0.731801 -0.0259123 7.31891e-10 -2.71241e-10 2.02072e-09 -2.22167 -0.733487 0.20892 -2.03217e-16 0.0 -3.88251e-19 -2.36657 -45.8195 -4.80976 -4.00338 77.1098 4.65569 -0.61474 -2.45794 -0.413144 2.03217e-16 0.0 3.88251e-19 -2.536 -3.76896 12.2034 -0.0324689 14.4984 -0.438759 0.656629 -7.63027 -2.55116
-203.757 82.2901 -33.5562 -39.4773 83.0057 -43.2467 -3.9025 6.8945 -1.3187 -1.95667 -0.693494 -0.759756 1.98824 9.88842 0.824293 3.00404 -22.2258 2.24842 -0.0 0.0 0.0 -0.0 0.0 0.0 2.56401e-14 -4.70145e-13 -6.66356e-14 69.0594 15.2404 -2.54001 -11.6197 -5.64526 20.319 -0.000445898 0.681177 0.0957367 5.25896e-10 3.31619e-10 -2.08479e-09 9.04182e-10 5.75028e-10 -3.60592e-09 5.259e-10 3.31621e-10 -2.0848e-09 7.73091 5.47488 0.417314 5.25891e-10 3.31613e-10 -2.08478e-09 2.90554 0.965183 0.102902 5.25904e-10 3.31618e-10 -2.08479e-09 10.2786 0.731801 0.0259123 5.25893e-10 3.31618e-10 -2.08479e-09 2.22167 -0.733487 -0.20892 2.54033e-14 -4.7013e-13 -6.68115e-14 -65.8998 13.9376 -1.50942 9.60529 -4.21179 -16.7319 0.163308 -12.9206 1.83969 9.67476e-10 -4.19853e-10 2.75191e-09 1.64583e-09 -7.20337e-10 4.7671e-09 9.67472e-10 -4.19853e-10 2.75191e-09 -7.73091 5.47488 -0.417314 9.67475e-10 -4.19855e-10 2.7519e-09 -2.90554 0.965183 -0.102902 9.67466e-10 -4.19853e-10 2.75191e-09 -10.2786 0.731801 -0.0259123 9.67482e-10 -4.19851e-10 2.75191e-09 -2.22167 -0.733487 0.20892 -2.03217e-16 0.0 -3.88251e-19 -8.46225 -65.6148 -11.9042 -175.661 66.4825 176.124 -0.723686 -5.41586 -0.682414 2.03217e-16 0.0 3.88251e-19 -3.16859 -1.40881 17.6268 -0.0334447 16.1934 -0.544007 0.535927 -10.306 -3.73594
